<svg width="24" height="24" viewBox="0 0 24 24" fill="none" xmlns="http://www.w3.org/2000/svg">
<path fill-rule="evenodd" clip-rule="evenodd" d="M3.99971 4.79995C3.33697 4.79995 2.79971 5.33721 2.79971 5.99995V18C2.79971 18.6627 3.33697 19.2 3.99971 19.2H19.9997C20.6624 19.2 21.1997 18.6627 21.1997 18V5.99995C21.1997 5.33721 20.6624 4.79995 19.9997 4.79995H3.99971ZM1.19971 5.99995C1.19971 4.45355 2.45331 3.19995 3.99971 3.19995H19.9997C21.5461 3.19995 22.7997 4.45355 22.7997 5.99995V18C22.7997 19.5463 21.5461 20.7999 19.9997 20.7999H3.99971C2.45331 20.7999 1.19971 19.5463 1.19971 18V5.99995Z" fill="#1F5B54"/>
<path fill-rule="evenodd" clip-rule="evenodd" d="M1.3246 6.57087C1.56156 6.19796 2.05596 6.08776 2.42887 6.32472L11.3964 12.0232C11.5774 12.1361 11.7865 12.1959 11.9998 12.1959C12.2132 12.1959 12.4222 12.1361 12.6032 12.0232C12.6038 12.0228 12.6044 12.0224 12.6051 12.022L21.5707 6.32472C21.9437 6.08776 22.4381 6.19796 22.675 6.57087C22.912 6.94378 22.8018 7.43817 22.4289 7.67514L13.4546 13.3779C13.0185 13.6511 12.5144 13.7959 11.9998 13.7959C11.4853 13.7959 10.9811 13.6511 10.5451 13.3779L10.5407 13.3752L1.57075 7.67514C1.19784 7.43817 1.08764 6.94378 1.3246 6.57087Z" fill="#1F5B54"/>
</svg>
