<svg width="24" height="24" viewBox="0 0 24 24" fill="none" xmlns="http://www.w3.org/2000/svg">
<path d="M12.0093 19V12.7662M18.9995 6.53514C18.6971 11.6094 15.4424 13.2505 12.7869 13.5076C12.3584 13.5489 12.0093 13.1963 12.0093 12.7662V9.50437C12.0093 9.41359 12.0249 9.32203 12.058 9.23788C13.2237 6.22033 16.0151 5.81358 18.2429 5.76098C18.6734 5.75046 19.0244 6.1054 18.9987 6.53514H18.9995ZM5.77499 5.00202C9.40953 5.2689 11.3061 7.37514 11.9446 8.72593C11.9894 8.82021 12.0093 8.92385 12.0093 9.02827V11.9519C12.0093 12.3961 11.6353 12.7526 11.1935 12.7078C5.51747 12.1366 5.03943 8.3971 5.00008 5.75319C4.99385 5.32228 5.34604 4.97007 5.77577 5.00202H5.77499Z" stroke="#18A7A9" stroke-width="2" stroke-linecap="round" stroke-linejoin="round"/>
</svg>
